<?xml version="1.0" encoding="UTF-8"?>
<svg xmlns="http://www.w3.org/2000/svg" xmlns:xlink="http://www.w3.org/1999/xlink" width="243px" height="60px" viewBox="0 0 242 60" version="1.1">
<g id="surface1">
<path style=" stroke:none;fill-rule:nonzero;fill:rgb(100%,100%,100%);fill-opacity:1;" d="M 24.34375 39.976562 L 28.015625 39.976562 L 28.015625 38.320312 C 28.015625 37.390625 27.894531 36.785156 27.894531 36.785156 L 27.972656 36.785156 C 29.304688 39.085938 31.804688 40.460938 34.46875 40.460938 C 39.871094 40.460938 43.746094 36.261719 43.746094 29.757812 C 43.746094 23.417969 40.316406 19.058594 34.789062 19.058594 C 31.964844 19.058594 29.386719 20.472656 28.175781 22.652344 L 28.09375 22.652344 C 28.09375 22.652344 28.257812 21.925781 28.257812 20.914062 L 28.257812 11.464844 L 24.34375 11.464844 Z M 28.136719 29.839844 C 28.136719 24.671875 30.957031 22.492188 34.023438 22.492188 C 37.410156 22.492188 39.792969 25.359375 39.792969 29.800781 C 39.792969 34.445312 37.128906 37.066406 33.902344 37.066406 C 30.03125 37.066406 28.136719 33.472656 28.136719 29.839844 Z M 28.136719 29.839844 "/>
<path style=" stroke:none;fill-rule:nonzero;fill:rgb(100%,100%,100%);fill-opacity:1;" d="M 45.640625 29.757812 C 45.640625 35.816406 50.078125 40.460938 56.488281 40.460938 C 59.3125 40.460938 62.417969 39.371094 64.394531 37.554688 L 62.742188 34.6875 C 61.128906 36.140625 58.910156 37.066406 56.730469 37.066406 C 53.0625 37.066406 49.914062 34.6875 49.714844 30.285156 L 64.558594 30.285156 C 64.636719 29.71875 64.71875 29.152344 64.71875 28.628906 C 64.71875 23.378906 61.652344 19.058594 55.886719 19.058594 C 50.078125 19.058594 45.640625 23.257812 45.640625 29.757812 Z M 49.835938 27.457031 C 50.398438 24.066406 52.777344 22.085938 55.804688 22.085938 C 58.464844 22.085938 60.644531 23.945312 60.765625 27.457031 Z M 49.835938 27.457031 "/>
<path style=" stroke:none;fill-rule:nonzero;fill:rgb(100%,100%,100%);fill-opacity:1;" d="M 66.492188 29.757812 C 66.492188 35.898438 70.96875 40.460938 77.421875 40.460938 C 80.609375 40.460938 83.714844 39.167969 85.570312 37.1875 L 84 34.320312 C 82.425781 35.976562 79.964844 37.066406 77.707031 37.066406 C 73.472656 37.066406 70.484375 33.878906 70.484375 29.71875 C 70.484375 25.558594 73.472656 22.449219 77.585938 22.449219 C 79.722656 22.449219 81.859375 23.417969 83.230469 24.792969 L 85.085938 22.046875 C 83.152344 19.988281 80.125 19.058594 77.421875 19.058594 C 71.011719 19.058594 66.492188 23.703125 66.492188 29.757812 Z M 66.492188 29.757812 "/>
<path style=" stroke:none;fill-rule:nonzero;fill:rgb(100%,100%,100%);fill-opacity:1;" d="M 94.929688 37.472656 C 96.945312 39.53125 99.96875 40.460938 102.714844 40.460938 C 107.070312 40.460938 110.054688 37.917969 110.054688 34.445312 C 110.054688 27.699219 99.527344 28.871094 99.527344 24.875 C 99.527344 23.136719 101.019531 22.328125 102.996094 22.328125 C 104.8125 22.328125 106.949219 23.015625 108.160156 24.144531 L 109.730469 21.320312 C 107.957031 19.703125 105.457031 19.058594 103.117188 19.058594 C 99.125 19.058594 95.777344 21.078125 95.777344 24.953125 C 95.777344 31.65625 106.261719 30.605469 106.261719 34.523438 C 106.261719 36.21875 104.851562 37.1875 102.792969 37.1875 C 100.65625 37.1875 98.316406 36.300781 96.785156 34.808594 Z M 94.929688 37.472656 "/>
<path style=" stroke:none;fill-rule:nonzero;fill:rgb(100%,100%,100%);fill-opacity:1;" d="M 111.789062 44.214844 L 110.417969 47.203125 C 110.417969 47.203125 112.070312 48.457031 114.328125 48.457031 C 117.191406 48.457031 119.734375 46.839844 120.945312 43.648438 L 130.542969 19.542969 L 126.308594 19.542969 L 121.347656 32.949219 C 120.984375 34 120.660156 35.371094 120.660156 35.371094 L 120.582031 35.371094 C 120.582031 35.371094 120.21875 33.917969 119.816406 32.910156 L 114.691406 19.542969 L 110.296875 19.542969 L 118.847656 39.734375 L 117.839844 42.074219 C 117.070312 43.933594 115.742188 45.105469 114.128906 45.105469 C 112.917969 45.105469 111.789062 44.214844 111.789062 44.214844 Z M 111.789062 44.214844 "/>
<path style=" stroke:none;fill-rule:nonzero;fill:rgb(100%,100%,100%);fill-opacity:1;" d="M 130.585938 37.472656 C 132.601562 39.53125 135.625 40.460938 138.367188 40.460938 C 142.726562 40.460938 145.710938 37.917969 145.710938 34.445312 C 145.710938 27.699219 135.183594 28.871094 135.183594 24.875 C 135.183594 23.136719 136.675781 22.328125 138.652344 22.328125 C 140.464844 22.328125 142.605469 23.015625 143.8125 24.144531 L 145.386719 21.320312 C 143.613281 19.703125 141.113281 19.058594 138.773438 19.058594 C 134.777344 19.058594 131.429688 21.078125 131.429688 24.953125 C 131.429688 31.65625 141.917969 30.605469 141.917969 34.523438 C 141.917969 36.21875 140.507812 37.1875 138.449219 37.1875 C 136.3125 37.1875 133.972656 36.300781 132.441406 34.808594 Z M 130.585938 37.472656 "/>
<path style=" stroke:none;fill-rule:nonzero;fill:rgb(100%,100%,100%);fill-opacity:1;" d="M 149.582031 32.503906 C 149.582031 39.328125 154.785156 40.175781 157.40625 40.175781 C 158.011719 40.175781 158.457031 40.097656 158.777344 40.054688 L 158.777344 36.582031 C 158.375 36.664062 158.132812 36.664062 157.851562 36.664062 C 156.359375 36.664062 153.492188 36.140625 153.492188 32.0625 L 153.492188 22.933594 L 158.414062 22.933594 L 158.414062 19.746094 L 153.492188 19.746094 L 153.492188 13.929688 L 149.664062 13.929688 L 149.664062 19.746094 L 146.917969 19.746094 L 146.917969 22.933594 L 149.582031 22.933594 Z M 149.582031 32.503906 "/>
<path style=" stroke:none;fill-rule:nonzero;fill:rgb(100%,100%,100%);fill-opacity:1;" d="M 159.664062 29.757812 C 159.664062 35.816406 164.101562 40.460938 170.515625 40.460938 C 173.339844 40.460938 176.445312 39.371094 178.421875 37.554688 L 176.765625 34.6875 C 175.152344 36.140625 172.933594 37.066406 170.757812 37.066406 C 167.085938 37.066406 163.941406 34.6875 163.738281 30.285156 L 178.582031 30.285156 C 178.664062 29.71875 178.742188 29.152344 178.742188 28.628906 C 178.742188 23.378906 175.679688 19.058594 169.910156 19.058594 C 164.101562 19.058594 159.664062 23.257812 159.664062 29.757812 Z M 163.859375 27.457031 C 164.425781 24.066406 166.804688 22.085938 169.828125 22.085938 C 172.492188 22.085938 174.667969 23.945312 174.789062 27.457031 Z M 163.859375 27.457031 "/>
<path style=" stroke:none;fill-rule:nonzero;fill:rgb(100%,100%,100%);fill-opacity:1;" d="M 181.847656 39.976562 L 185.761719 39.976562 L 185.761719 30.445312 C 185.761719 26.648438 188.019531 22.613281 191.890625 22.613281 C 195 22.613281 195.402344 25.074219 195.402344 27.738281 L 195.402344 39.976562 L 199.3125 39.976562 L 199.3125 30.445312 C 199.3125 26.527344 201.574219 22.613281 205.363281 22.613281 C 208.390625 22.613281 208.953125 24.875 208.953125 27.738281 L 208.953125 39.976562 L 212.867188 39.976562 L 212.867188 26.890625 C 212.867188 21.683594 210.769531 19.058594 206.128906 19.058594 C 202.824219 19.058594 200 21.320312 198.871094 23.703125 L 198.789062 23.703125 C 198.105469 20.632812 196.128906 19.058594 192.699219 19.058594 C 189.472656 19.058594 186.566406 21.480469 185.601562 23.863281 L 185.519531 23.863281 C 185.519531 23.863281 185.640625 23.175781 185.640625 22.328125 L 185.640625 19.542969 L 181.847656 19.542969 Z M 181.847656 39.976562 "/>
<path style=" stroke:none;fill-rule:evenodd;fill:rgb(100%,100%,100%);fill-opacity:1;" d="M 215.367188 37.472656 C 217.382812 39.53125 220.410156 40.460938 223.152344 40.460938 C 227.507812 40.460938 230.492188 37.917969 230.492188 34.445312 C 230.492188 27.699219 219.964844 28.871094 219.964844 24.875 C 219.964844 23.136719 221.457031 22.328125 223.433594 22.328125 C 225.25 22.328125 227.386719 23.015625 228.597656 24.144531 L 230.167969 21.320312 C 228.394531 19.703125 225.894531 19.058594 223.554688 19.058594 C 219.5625 19.058594 216.214844 21.078125 216.214844 24.953125 C 216.214844 31.65625 226.699219 30.605469 226.699219 34.523438 C 226.699219 36.21875 225.289062 37.1875 223.230469 37.1875 C 221.09375 37.1875 218.753906 36.300781 217.222656 34.808594 Z M 215.367188 37.472656 "/>
<path style=" stroke:none;fill-rule:nonzero;fill:rgb(90.196078%,0%,49.803922%);fill-opacity:1;" d="M 14.917969 39.976562 L 19.449219 39.976562 L 18.828125 22.933594 L 15.535156 22.933594 Z M 14.917969 39.976562 "/>
<path style=" stroke:none;fill-rule:nonzero;fill:rgb(90.196078%,0%,49.803922%);fill-opacity:1;" d="M 17.183594 11.464844 L 18.46875 15.429688 L 22.628906 15.429688 L 19.261719 17.878906 L 20.550781 21.839844 L 17.183594 19.390625 L 13.816406 21.839844 L 15.101562 17.878906 L 11.734375 15.429688 L 15.898438 15.429688 Z M 17.183594 11.464844 "/>
</g>
</svg>
